<?xml version="1.0" encoding="UTF-8" standalone="no"?>
<!-- Uploaded to: SVG Repo, www.svgrepo.com, Generator: SVG Repo Mixer Tools -->

<svg
   width="800px"
   height="800px"
   viewBox="0 0 24 24"
   fill="none"
   version="1.1"
   id="svg3"
   sodipodi:docname="favicon.svg"
   xml:space="preserve"
   inkscape:version="1.4.2 (ebf0e940d0, 2025-05-08)"
   xmlns:inkscape="http://www.inkscape.org/namespaces/inkscape"
   xmlns:sodipodi="http://sodipodi.sourceforge.net/DTD/sodipodi-0.dtd"
   xmlns="http://www.w3.org/2000/svg"
   xmlns:svg="http://www.w3.org/2000/svg"
   xmlns:rdf="http://www.w3.org/1999/02/22-rdf-syntax-ns#"
   xmlns:cc="http://creativecommons.org/ns#"><defs
     id="defs3">
	

	

	
</defs><sodipodi:namedview
     id="namedview3"
     pagecolor="#ffffff"
     bordercolor="#000000"
     borderopacity="0.25"
     inkscape:showpageshadow="2"
     inkscape:pageopacity="0.0"
     inkscape:pagecheckerboard="0"
     inkscape:deskcolor="#d1d1d1"
     inkscape:zoom="0.45254834"
     inkscape:cx="536.95921"
     inkscape:cy="314.88349"
     inkscape:window-width="1892"
     inkscape:window-height="1007"
     inkscape:window-x="12"
     inkscape:window-y="59"
     inkscape:window-maximized="1"
     inkscape:current-layer="svg3" /><g
     id="g1"
     transform="matrix(1.1332802,0,0,1.1332802,-1.5993619,-1.5993611)"><path
       id="path1-6"
       style="fill:#4982cb;fill-opacity:1;stroke-width:0.0585155"
       d="m 12,1.9250977 c -0.281065,0 -0.562111,0.061571 -0.775313,0.1846875 L 3.8224805,6.3834375 C 3.3960192,6.6296124 3.0471094,7.2339394 3.0471094,7.7263477 v 8.5473043 c 0,0.246233 0.087258,0.520462 0.2278125,0.763828 L 12,12 20.725137,6.9625195 C 20.584582,6.7190948 20.390692,6.5065542 20.17752,6.3834375 L 12.775313,2.1097852 C 12.562111,1.9866684 12.281065,1.9250977 12,1.9250977 Z M 12,12 3.2749219,17.037539 c 0.1404959,0.243366 0.3343865,0.455965 0.5475586,0.579024 l 7.4022065,4.273652 c 0.426404,0.246234 1.124223,0.246234 1.550626,0 l 7.402207,-4.273652 c 0.213231,-0.123118 0.407062,-0.335658 0.547558,-0.579083 0.140496,-0.243366 0.227813,-0.517595 0.227813,-0.763828 V 7.7263477 c 0,-0.2462334 -0.0872,-0.5204035 -0.227754,-0.7637696 z" /><path
       d="m 6.962374,6.4304441 4.380545,11.1390999 h 1.355883 l 2.690906,-6.299641 c 0.667511,-1.5436205 1.272444,-3.1498203 1.647919,-4.8394589 h -1.564481 c -0.292035,1.6061997 -0.876108,3.1498202 -1.5019,4.5891429 L 12.198168,15.128954 9.0066283,7.0562362 c -0.020859,-0.041719 -0.04172,-0.083439 -0.04172,-0.1460182 0,-0.1460182 0.1251585,-0.2920363 0.083439,-0.4797739 z"
       id="text9"
       style="font-size:18.6252px;line-height:6.4;font-family:'Inconsolata-g for Powerline';-inkscape-font-specification:'Inconsolata-g for Powerline, Normal';text-align:center;text-anchor:middle;fill:#f9f9f9;fill-rule:evenodd;stroke-width:1.46391;stroke-linecap:round;stroke-linejoin:round"
       aria-label="v" /></g><metadata
     id="metadata9"><rdf:RDF><cc:Work
         rdf:about=""><cc:license
           rdf:resource="http://artlibre.org/licence/lal" /></cc:Work><cc:License
         rdf:about="http://artlibre.org/licence/lal"><cc:permits
           rdf:resource="http://creativecommons.org/ns#Reproduction" /><cc:permits
           rdf:resource="http://creativecommons.org/ns#Distribution" /><cc:permits
           rdf:resource="http://creativecommons.org/ns#DerivativeWorks" /><cc:requires
           rdf:resource="http://creativecommons.org/ns#ShareAlike" /><cc:requires
           rdf:resource="http://creativecommons.org/ns#Notice" /><cc:requires
           rdf:resource="http://creativecommons.org/ns#Attribution" /></cc:License></rdf:RDF></metadata></svg>
